<?xml version="1.0" encoding="UTF-8" standalone="no"?><!DOCTYPE svg PUBLIC "-//W3C//DTD SVG 1.1//EN" "http://www.w3.org/Graphics/SVG/1.1/DTD/svg11.dtd"><svg width="100%" height="100%" viewBox="0 0 64 64" version="1.1" xmlns="http://www.w3.org/2000/svg" xmlns:xlink="http://www.w3.org/1999/xlink" xml:space="preserve" xmlns:serif="http://www.serif.com/" style="fill-rule:evenodd;clip-rule:evenodd;stroke-linejoin:round;stroke-miterlimit:2;"><path d="M57.971,0c3.327,0 6.029,2.702 6.029,6.029l0,51.942c0,3.327 -2.702,6.029 -6.029,6.029l-51.942,0c-3.327,0 -6.029,-2.702 -6.029,-6.029l0,-51.942c0,-3.327 2.702,-6.029 6.029,-6.029l51.942,0Zm-31.297,36.108l4.847,0.493c-0.312,2.692 -1.435,4.909 -3.37,6.649c-1.935,1.741 -4.475,2.611 -7.621,2.611c-2.651,0 -4.802,-0.617 -6.453,-1.852c-1.651,-1.235 -2.923,-2.91 -3.816,-5.024c-0.893,-2.115 -1.339,-4.447 -1.339,-6.995c0,-4.098 1.049,-7.431 3.146,-9.999c2.098,-2.568 4.982,-3.852 8.653,-3.852c2.877,0 5.272,0.821 7.186,2.463c1.913,1.642 3.118,3.993 3.614,7.054l-4.847,0.472c-0.893,-4.058 -2.863,-6.088 -5.911,-6.088c-1.956,0 -3.476,0.844 -4.56,2.532c-1.084,1.688 -1.626,4.134 -1.626,7.339c0,3.258 0.581,5.717 1.743,7.379c1.162,1.662 2.7,2.492 4.613,2.492c1.531,0 2.835,-0.558 3.912,-1.674c1.077,-1.117 1.687,-2.45 1.829,-4Zm19.326,9.339l9.078,-26.894l-4.358,0l-6.803,20.609l-6.654,-20.609l-5.528,0l8.95,26.894l5.315,0Z"/></svg>